<svg xmlns="http://www.w3.org/2000/svg" xmlns:xlink="http://www.w3.org/1999/xlink" width="1280" height="183" viewBox="0 0 1280 183">
    <defs>
        <linearGradient id="b" x1="100%" x2="0%" y1="50%" y2="50%">
            <stop offset="0%" stop-color="#940303"/>
            <stop offset="46.335%" stop-color="#DB2828"/>
            <stop offset="100%" stop-color="#F02424"/>
        </linearGradient>
        <path id="a" d="M0 0h1280v183H0z"/>
    </defs>
    <g fill="none" fill-rule="evenodd">
        <mask id="c" fill="#fff">
            <use xlink:href="#a"/>
        </mask>
        <use fill="url(#b)" xlink:href="#a"/>
        <path fill="#FFF" d="M1247.5 50c64.893 0 117.5 52.607 117.5 117.5S1312.393 285 1247.5 285 1130 232.393 1130 167.5 1182.607 50 1247.5 50zm0 48c-38.384 0-69.5 31.116-69.5 69.5s31.116 69.5 69.5 69.5 69.5-31.116 69.5-69.5-31.116-69.5-69.5-69.5zM1073.5-24c36.727 0 66.5 29.773 66.5 66.5 0 36.727-29.773 66.5-66.5 66.5-36.727 0-66.5-29.773-66.5-66.5 0-36.727 29.773-66.5 66.5-66.5zm.363 32.617c-18.913 0-34.246 15.333-34.246 34.246 0 18.914 15.333 34.246 34.246 34.246 18.914 0 34.246-15.332 34.246-34.246 0-18.913-15.332-34.246-34.246-34.246z" mask="url(#c)" opacity=".1"/>
        <path fill="#FFF" d="M164.5-86C266.397-86 349-3.397 349 98.5S266.397 283 164.5 283-20 200.397-20 98.5 62.603-86 164.5-86zM166-9C105.801-9 57 39.801 57 100s48.801 109 109 109 109-48.801 109-109S226.199-9 166-9z" mask="url(#c)" opacity=".08"/>
    </g>
</svg>
